<?xml version="1.0" encoding="UTF-8" standalone="no"?>
<svg
   xmlns:dc="http://purl.org/dc/elements/1.1/"
   xmlns:cc="http://creativecommons.org/ns#"
   xmlns:rdf="http://www.w3.org/1999/02/22-rdf-syntax-ns#"
   xmlns:svg="http://www.w3.org/2000/svg"
   xmlns="http://www.w3.org/2000/svg"
   id="svg2"
   version="1.1"
   width="100"
   height="100"
   xml:space="preserve"><metadata
   id="metadata12"><rdf:RDF><cc:Work
       rdf:about=""><dc:format>image/svg+xml</dc:format><dc:type
         rdf:resource="http://purl.org/dc/dcmitype/StillImage" /><dc:title></dc:title></cc:Work></rdf:RDF></metadata>
  <defs
   id="defs6" />
  <path
   style="fill:#f5c600;fill-opacity:1;stroke:none;stroke-width:299.80200195;stroke-miterlimit:4;stroke-dasharray:none;stroke-opacity:0.74331551"
   d="m 48.897559,0.01215132 c 1.725471,-0.03805382 3.43245,0.01176143 5.116659,0.14536311 1.684209,0.13359769 3.345646,0.35097381 4.980033,0.64803174 1.634388,0.29705893 3.241723,0.67379973 4.817728,1.12612763 1.576005,0.4523279 3.120678,0.9802431 4.62974,1.5796507 1.509063,0.5994067 2.982514,1.270306 4.416074,2.0086012 1.43356,0.7382952 2.827229,1.5439873 4.176725,2.4129798 1.349497,0.8689924 2.654823,1.8012862 3.911696,2.7927845 2.580351,2.054243 4.919474,4.31077 6.925583,6.626698 1.045946,1.21194 2.034881,2.474894 2.962524,3.784768 0.927642,1.309873 1.793994,2.666666 2.594772,4.066283 0.800779,1.399617 1.535986,2.842057 2.201339,4.323227 0.665355,1.481169 1.260857,3.001066 1.782226,4.555597 0.521369,1.554531 0.968606,3.143694 1.337431,4.763396 0.368825,1.619702 0.659237,3.269941 0.866956,4.946621 0.20772,1.676682 0.332746,3.379805 0.3708,5.105276 0.03805,1.72547 -0.01176,3.432449 -0.145363,5.116659 -0.133598,1.684208 -0.350974,3.345646 -0.648032,4.980033 -0.297059,1.634387 -0.6738,3.241722 -1.126128,4.817728 -0.452328,1.576004 -0.980243,3.120677 -1.579651,4.62974 -0.599406,1.509063 -1.270305,2.982513 -2.008601,4.416073 -0.738295,1.43356 -1.543987,2.827229 -2.412979,4.176725 -0.868993,1.349497 -1.801287,2.654823 -2.792785,3.911697 -2.054243,2.58035 -4.31077,4.919473 -6.626698,6.925582 -1.21194,1.045946 -2.474894,2.034881 -3.784768,2.962524 -1.309873,0.927643 -2.666666,1.793994 -4.066283,2.594772 -1.399617,0.800779 -2.842057,1.535986 -4.323227,2.20134 -1.481169,0.665354 -3.001066,1.260856 -4.555597,1.782225 -1.554531,0.52137 -3.143694,0.968607 -4.763396,1.337431 -1.619702,0.368825 -3.269941,0.659237 -4.946621,0.866956 -1.676682,0.207719 -3.379805,0.332746 -5.105276,0.3708 -1.72547,0.03805 -3.43245,-0.01177 -5.116659,-0.145364 -1.684208,-0.133597 -3.345646,-0.350973 -4.980033,-0.648031 -1.634387,-0.297059 -3.241722,-0.6738 -4.817727,-1.126128 C 34.612016,97.61599 33.067343,97.088075 31.55828,96.488668 30.049217,95.889261 28.575767,95.218362 27.142207,94.480066 25.708647,93.741771 24.314978,92.93608 22.965482,92.067087 21.615985,91.198094 20.310659,90.2658 19.053785,89.274302 16.473436,87.220058 14.134311,84.963532 12.128203,82.647604 11.082257,81.435664 10.093322,80.17271 9.165679,78.862836 8.2380362,77.552963 7.3716854,76.19617 6.5709068,74.796553 5.7701282,73.396936 5.0349217,71.954496 4.3695675,70.473326 3.7042133,68.992157 3.1087114,67.47226 2.5873419,65.917728 2.0659724,64.363198 1.6187353,62.774035 1.2499109,61.154333 0.88108633,59.534632 0.59067435,57.884393 0.38295507,56.207712 0.17523576,54.53103 0.05020914,52.827907 0.01215532,51.102437 -0.0258985,49.376966 0.02392113,47.669987 0.15751879,45.985778 0.29111646,44.301569 0.50849216,42.640132 0.80555048,41.005745 1.1026087,39.371357 1.4793497,37.764022 1.9316778,36.188018 c 0.4523281,-1.576006 0.9802435,-3.120679 1.5796506,-4.629741 0.599407,-1.509063 1.270306,-2.982514 2.0086013,-4.416074 0.7382952,-1.43356 1.5439868,-2.827229 2.4129795,-4.176725 0.8689925,-1.349497 1.8012863,-2.654823 2.7927848,-3.911696 2.054244,-2.58035 4.31077,-4.919476 6.626698,-6.925583 1.21194,-1.045946 2.474894,-2.034881 3.784768,-2.9625237 1.309873,-0.9276426 2.666666,-1.7939939 4.066283,-2.5947725 1.399617,-0.8007785 2.842057,-1.5359854 4.323227,-2.2013391 1.481169,-0.6653548 3.001066,-1.2608565 4.555598,-1.7822258 1.55453,-0.5213693 3.143693,-0.9686062 4.763395,-1.3374313 1.619701,-0.36882419 3.26994,-0.65923659 4.946621,-0.8669559 1.676682,-0.20771933 3.379805,-0.33274556 5.105275,-0.37079938 z"
   id="path815" />
</svg>