<?xml version="1.0" encoding="UTF-8" standalone="no"?>
<svg
   xmlns:dc="http://purl.org/dc/elements/1.1/"
   xmlns:cc="http://creativecommons.org/ns#"
   xmlns:rdf="http://www.w3.org/1999/02/22-rdf-syntax-ns#"
   xmlns:svg="http://www.w3.org/2000/svg"
   xmlns="http://www.w3.org/2000/svg"
   width="18.190105mm"
   height="45.475258mm"
   viewBox="0 0 18.190105 45.475258"
   version="1.1"
   id="svg8">
  <defs
     id="defs2" />
  <metadata
     id="metadata5">
    <rdf:RDF>
      <cc:Work
         rdf:about="">
        <dc:format>image/svg+xml</dc:format>
        <dc:type
           rdf:resource="http://purl.org/dc/dcmitype/StillImage" />
        <dc:title></dc:title>
      </cc:Work>
    </rdf:RDF>
  </metadata>
  <g
     id="layer1"
     transform="translate(-92.238001,-67.261341)">
    <g
       aria-label="fd"
       style="font-style:normal;font-weight:normal;font-size:10.58333302px;line-height:1.25;font-family:sans-serif;letter-spacing:0px;word-spacing:0px;fill:#000000;fill-opacity:1;stroke:none;stroke-width:0.26458332"
       id="text816"
       transform="translate(23.623512)">
      <path
         d="m 70.888252,80.90392 h 2.273763 v -4.547526 q 0,-3.824057 2.652724,-6.442329 2.652724,-2.652724 6.442329,-2.652724 h 2.273763 q 2.273763,0 2.273763,2.273763 0,2.273763 -2.273763,2.273763 h -2.273763 q -1.894803,0 -3.23839,1.343588 -1.309136,1.309136 -1.309136,3.203939 v 4.547526 h 6.821289 q 2.273763,0 2.273763,2.273763 0,2.273763 -2.273763,2.273763 h -6.821289 v 25.011394 q 0,2.27376 -2.273763,2.27376 -2.273764,0 -2.273764,-2.27376 V 85.451446 h -2.273763 q -2.273763,0 -2.273763,-2.273763 0,-2.273763 2.273763,-2.273763 z"
         style="font-style:normal;font-variant:normal;font-weight:normal;font-stretch:normal;font-size:70.55555725px;font-family:ISOCPEUR;-inkscape-font-specification:ISOCPEUR;letter-spacing:-2.83633304px;fill:#000000;fill-opacity:1;stroke-width:0.26458332"
         id="path819" />
    </g>
  </g>
</svg>
